<svg width="80" height="80" viewBox="0 0 80 80" fill="none" xmlns="http://www.w3.org/2000/svg">
<path d="M1.72946 0.992495L1.35352 1.39851V6.64663V11.8947L1.74449 12.2557L2.15051 12.6316H7.36855H12.5866L12.9926 12.2557L13.3836 11.8947V6.64663V1.39851L13.0077 0.992495L12.6467 0.601517H7.36855H2.09036L1.72946 0.992495ZM10.9776 6.61655V10.2256H7.36855H3.75953V6.61655V3.00753H7.36855H10.9776V6.61655Z" fill="#D22530"/>
<path d="M66.6919 0.992495L66.3159 1.39851V6.64663V11.8947L66.7069 12.2557L67.1129 12.6316H72.331H77.549L77.955 12.2557L78.346 11.8947V6.64663V1.39851L77.9701 0.992495L77.6092 0.601517H72.331H67.0528L66.6919 0.992495ZM75.94 6.61655V10.2256H72.331H68.7219V6.61655V3.00753H72.331H75.94V6.61655Z" fill="#D22530"/>
<path d="M15.7896 6.61657V7.81958H18.1956H20.6016V6.61657V5.41357H18.1956H15.7896V6.61657Z" fill="#1E1E20"/>
<path d="M23.0076 6.61657V7.81958H25.4136H27.8196V6.61657V5.41357H25.4136H23.0076V6.61657Z" fill="#1E1E20"/>
<path d="M30.2256 6.61657V7.81958H32.6316H35.0376V6.61657V5.41357H32.6316H30.2256V6.61657Z" fill="#1E1E20"/>
<path d="M37.4436 6.61657V7.81958H39.8496H42.2556V6.61657V5.41357H39.8496H37.4436V6.61657Z" fill="#1E1E20"/>
<path d="M44.6619 6.61657V7.81958H47.0679H49.4739V6.61657V5.41357H47.0679H44.6619V6.61657Z" fill="#1E1E20"/>
<path d="M51.8799 6.61657V7.81958H54.2859H56.6919V6.61657V5.41357H54.2859H51.8799V6.61657Z" fill="#1E1E20"/>
<path d="M59.0979 6.61657V7.81958H61.5039H63.9099V6.61657V5.41357H61.5039H59.0979V6.61657Z" fill="#1E1E20"/>
<path d="M6.16553 17.4436V19.8496H7.36853H8.57154V17.4436V15.0376H7.36853H6.16553V17.4436Z" fill="#1E1E20"/>
<path d="M71.1279 17.4436V19.8496H72.3309H73.5339V17.4436V15.0376H72.3309H71.1279V17.4436Z" fill="#1E1E20"/>
<path d="M52.9324 15.9098C52.5414 16.1655 41.3835 27.3835 41.173 27.7143C40.8121 28.2858 41.3384 29.2632 42.0301 29.3233C42.6316 29.3835 42.7971 29.3083 43.4286 28.7068L44.0903 28.1053L44.8873 28.8572C45.3384 29.2782 45.7595 29.6241 45.8196 29.6241C46.0001 29.6241 47.3685 28.2256 47.3685 28.0452C47.3685 27.97 47.0226 27.5489 46.5865 27.1128L45.8196 26.3309L47.0677 25.0376L48.3309 23.7444L50.0301 25.4436L51.7294 27.1429L52.5865 26.2707L53.4587 25.4136L51.7595 23.7143L50.0753 22.0301L51.6993 20.4061C52.5865 19.5188 53.3835 18.797 53.4587 18.797C53.6542 18.797 60.1504 25.3083 60.1504 25.4888C60.1504 25.5639 57.7895 28 54.8873 30.9023C49.6993 36.1053 49.6241 36.1805 49.6241 36.782C49.6241 37.5489 49.97 37.8948 50.7519 37.8948C51.2933 37.8948 51.4587 37.7594 54.1655 34.9925C55.7294 33.4136 58.391 30.7068 60.0903 29.0076C62.9174 26.1655 63.173 25.8647 63.1279 25.4436C63.0978 25.0527 62.3008 24.1955 58.7219 20.5865C56.3309 18.1805 54.1956 16.0752 54.0001 15.9249C53.564 15.579 53.4136 15.5639 52.9324 15.9098Z" fill="#1E1E20"/>
<path d="M26.346 18.797C25.3836 19.2933 19.94 24.7218 19.5641 25.5639C19.143 26.4963 19.143 27.9248 19.5641 28.7519C19.7596 29.1429 24.722 34.2256 33.4287 42.9624C40.8874 50.4512 47.1881 56.7068 47.4137 56.8722C47.6543 57.0376 48.7972 57.3985 50.0453 57.6842C54.2558 58.6617 54.8272 58.797 56.722 59.2482C57.7746 59.4888 58.9475 59.6993 59.3084 59.6993C60.5415 59.6993 60.6919 58.9173 60.0152 56.0903C59.8348 55.3835 59.5039 53.9248 59.2483 52.8572C59.0077 51.7745 58.6017 50.0151 58.346 48.9474L57.8949 46.9925L44.0904 33.188C36.5114 25.6091 30.0453 19.2181 29.7295 18.9925C28.9175 18.4361 27.2633 18.3309 26.346 18.797ZM29.6994 22.1203C30.4814 22.8722 31.128 23.5639 31.128 23.6692C31.128 23.7594 29.6543 25.3083 27.8348 27.1278C24.9927 29.9549 24.5114 30.391 24.2708 30.2557C23.8799 30.0451 21.8949 27.985 21.6693 27.5489C21.5641 27.3534 21.519 27.0376 21.5641 26.8722C21.6092 26.6918 22.9475 25.2331 24.5566 23.6391C26.8573 21.3384 27.549 20.7519 27.8648 20.7519C28.1656 20.7519 28.6167 21.0978 29.6994 22.1203ZM44.0453 36.4512C50.4663 42.8872 54.8874 47.3985 54.8272 47.5038C54.7671 47.594 54.316 47.6692 53.8348 47.6692C52.8724 47.6692 52.2558 47.8797 52.0904 48.2557C52.0152 48.391 51.94 49.0677 51.8949 49.7745L51.8047 51.0527L50.6769 51.0978C50.0603 51.1128 49.3987 51.1579 49.2032 51.203C48.722 51.3233 48.4212 52.1053 48.4212 53.2331C48.4212 53.8497 48.3611 54.1354 48.2408 54.1354C48.0152 54.1354 26.316 32.4812 26.316 32.2557C26.316 32.1654 26.8573 31.5639 27.519 30.9023L28.722 29.6993L38.6919 39.6692C49.6092 50.5715 49.0378 50.0903 49.94 49.188C50.8423 48.2857 51.3235 48.8572 40.4212 37.9399L30.4513 27.97L31.6543 26.7669C32.316 26.1053 32.9175 25.5639 33.0077 25.5639C33.0829 25.5639 38.0603 30.4662 44.0453 36.4512ZM56.0603 50.1053C56.2408 50.3459 56.5866 51.985 56.4814 52.1504C56.4363 52.2256 56.1205 52.376 55.7596 52.4963C54.8874 52.782 53.519 54.1504 53.1581 55.0677C53.0077 55.4737 52.8122 55.7895 52.7069 55.7895C52.1505 55.7895 50.8272 55.4286 50.7671 55.2482C50.722 55.1429 50.737 54.7068 50.7821 54.2857L50.8724 53.5339H52.2107C53.4287 53.5339 53.5791 53.5038 53.9099 53.1579C54.2558 52.8271 54.2859 52.6767 54.2859 51.4436V50.0903L54.8573 50.0301C55.1581 50 55.519 49.97 55.6543 49.9549C55.7896 49.9399 55.9701 50.0151 56.0603 50.1053ZM57.3536 55.7294C57.5039 56.2557 57.5942 56.7369 57.549 56.782C57.4287 56.9023 55.3385 56.2707 55.3385 56.1203C55.3686 55.6542 56.5716 54.5564 56.9175 54.6767C57.0077 54.7218 57.2032 55.188 57.3536 55.7294Z" fill="#1E1E20"/>
<path d="M6.16553 24.6617V27.0677H7.36853H8.57154V24.6617V22.2557H7.36853H6.16553V24.6617Z" fill="#1E1E20"/>
<path d="M71.1279 24.6617V27.0677H72.3309H73.5339V24.6617V22.2557H72.3309H71.1279V24.6617Z" fill="#1E1E20"/>
<path d="M6.16553 31.8797V34.2857H7.36853H8.57154V31.8797V29.4737H7.36853H6.16553V31.8797Z" fill="#1E1E20"/>
<path d="M71.1279 31.8797V34.2857H72.3309H73.5339V31.8797V29.4737H72.3309H71.1279V31.8797Z" fill="#1E1E20"/>
<path d="M6.16553 39.0978V41.5038H7.36853H8.57154V39.0978V36.6918H7.36853H6.16553V39.0978Z" fill="#1E1E20"/>
<path d="M71.1279 39.0978V41.5038H72.3309H73.5339V39.0978V36.6918H72.3309H71.1279V39.0978Z" fill="#1E1E20"/>
<path d="M22.5265 46.2406C17.0678 51.6541 16.5415 52.2256 16.5415 52.6767C16.5415 53.1128 16.9776 53.594 21.1731 57.7895C25.1129 61.7293 25.8648 62.406 26.2408 62.406C26.6017 62.406 27.143 61.9398 29.6092 59.4887C31.2332 57.8797 33.925 55.218 35.6092 53.5639C38.2107 50.9774 38.6468 50.4962 38.6468 50.1053C38.6468 49.5489 37.925 48.7218 37.4287 48.7218C37.1731 48.7218 35.6693 50.1353 31.7295 54.0601C28.7821 56.9925 26.3159 59.3985 26.2257 59.3985C26.0603 59.3985 19.549 52.9022 19.549 52.7218C19.549 52.6616 20.2708 51.8647 21.1731 50.9624L22.7821 49.3383L24.5114 51.0526L26.2408 52.7819L27.1129 51.9098L27.9701 51.0526L26.3159 49.3985C25.3986 48.4962 24.6618 47.6842 24.6618 47.594C24.6618 47.5038 25.2032 46.9022 25.8648 46.2406L27.0678 45.0376L27.925 45.9098L28.7971 46.7669L29.6543 45.9098L30.5265 45.0526L29.6693 44.1804L28.8122 43.3233L29.5189 42.5714C29.9099 42.1504 30.2257 41.7293 30.2257 41.609C30.2257 41.4887 30.0753 41.1729 29.8798 40.8872C29.6242 40.4962 29.4137 40.3609 29.0227 40.3308C28.5114 40.3007 28.2558 40.5413 22.5265 46.2406Z" fill="#1E1E20"/>
<path d="M6.16553 46.3158V48.7218H7.36853H8.57154V46.3158V43.9098H7.36853H6.16553V46.3158Z" fill="#1E1E20"/>
<path d="M71.1279 46.3158V48.7218H72.3309H73.5339V46.3158V43.9098H72.3309H71.1279V46.3158Z" fill="#1E1E20"/>
<path d="M6.16553 53.5339V55.9399H7.36853H8.57154V53.5339V51.1279H7.36853H6.16553V53.5339Z" fill="#1E1E20"/>
<path d="M71.1279 53.5339V55.9399H72.3309H73.5339V53.5339V51.1279H72.3309H71.1279V53.5339Z" fill="#1E1E20"/>
<path d="M6.16553 60.7519V63.1579H7.36853H8.57154V60.7519V58.3459H7.36853H6.16553V60.7519Z" fill="#1E1E20"/>
<path d="M71.1279 60.7519V63.1579H72.3309H73.5339V60.7519V58.3459H72.3309H71.1279V60.7519Z" fill="#1E1E20"/>
<path d="M1.72946 65.9549L1.35352 66.3609V71.609V76.8572L1.74449 77.2181L2.15051 77.594H7.36855H12.5866L12.9926 77.2181L13.3836 76.8572V71.609V66.3609L13.0077 65.9549L12.6467 65.5639H7.36855H2.09036L1.72946 65.9549ZM10.9776 71.579V75.188H7.36855H3.75953V71.579V67.9699H7.36855H10.9776V71.579Z" fill="#D22530"/>
<path d="M66.6919 65.9549L66.3159 66.3609V71.609V76.8572L66.7069 77.2181L67.1129 77.594H72.331H77.549L77.955 77.2181L78.346 76.8572V71.609V66.3609L77.9701 65.9549L77.6092 65.5639H72.331H67.0528L66.6919 65.9549ZM75.94 71.579V75.188H72.331H68.7219V71.579V67.9699H72.331H75.94V71.579Z" fill="#D22530"/>
<path d="M15.7896 71.579V72.782H18.1956H20.6016V71.579V70.376H18.1956H15.7896V71.579Z" fill="#1E1E20"/>
<path d="M23.0076 71.579V72.782H25.4136H27.8196V71.579V70.376H25.4136H23.0076V71.579Z" fill="#1E1E20"/>
<path d="M30.2256 71.579V72.782H32.6316H35.0376V71.579V70.376H32.6316H30.2256V71.579Z" fill="#1E1E20"/>
<path d="M37.4436 71.579V72.782H39.8496H42.2556V71.579V70.376H39.8496H37.4436V71.579Z" fill="#1E1E20"/>
<path d="M44.6619 71.579V72.782H47.0679H49.4739V71.579V70.376H47.0679H44.6619V71.579Z" fill="#1E1E20"/>
<path d="M51.8799 71.579V72.782H54.2859H56.6919V71.579V70.376H54.2859H51.8799V71.579Z" fill="#1E1E20"/>
<path d="M59.0979 71.579V72.782H61.5039H63.9099V71.579V70.376H61.5039H59.0979V71.579Z" fill="#1E1E20"/>
</svg>
