<svg width="80" height="80" viewBox="0 0 80 80" fill="none" xmlns="http://www.w3.org/2000/svg">
<path d="M52.7253 2.37836L52.3634 2.75671V11.426V20.0788L52.7253 20.4242C53.0543 20.7203 53.3011 20.7532 55.1928 20.7532H57.2985V23.303C57.2985 25.8035 57.3149 25.8693 57.7097 26.2641C58.4993 27.0701 58.7296 26.9385 61.9703 23.7143L64.9643 20.7532H69.521C74.0283 20.7532 74.0612 20.7532 74.308 20.3913C74.5383 20.0623 74.5712 18.9273 74.5712 11.2615V2.50996L74.2093 2.26321C73.8803 2.0329 72.5807 2 63.4673 2H53.0708L52.7253 2.37836ZM72.2682 11.3766V18.4502H68.1227H63.9937L61.9045 20.5065C60.7695 21.6416 59.7824 22.5628 59.7166 22.5628C59.6508 22.5628 59.6015 21.8061 59.6015 20.8684C59.6015 19.9472 59.5357 19.1082 59.4699 19.0095C59.1902 18.5818 58.5487 18.4502 56.6569 18.4502H54.6664V11.3766V4.30303H63.4673H72.2682V11.3766Z" fill="#1E1E20"/>
<path d="M58.3183 7.92209C57.7754 8.43205 57.7754 9.15586 58.3183 9.60001C58.6144 9.86322 59.1243 9.89612 63.5494 9.89612C67.7936 9.89612 68.501 9.86322 68.7148 9.63291C69.3399 9.02426 69.159 8.05369 68.3858 7.75759C68.1555 7.65889 65.8854 7.59309 63.3191 7.59309C58.8776 7.59309 58.6637 7.60954 58.3183 7.92209Z" fill="#D22530"/>
<path d="M58.4006 13.0546C57.9894 13.3836 57.792 14.0581 58.0058 14.4364C58.4006 15.1438 58.4993 15.1438 63.5824 15.1602H68.4682L68.7972 14.7325C69.2578 14.1403 69.2249 13.6139 68.7149 13.2026C68.2872 12.8736 68.0898 12.8572 63.4837 12.8572C59.8976 12.8572 58.6145 12.9065 58.4006 13.0546Z" fill="#D22530"/>
<path d="M32.6231 7.87273C30.3036 8.11949 27.4906 8.99135 25.1876 10.1758C22.2924 11.6563 20.3677 13.5316 19.0846 16.1307L18.3937 17.5126V19.9965C18.3937 21.3619 18.443 22.7931 18.5253 23.1714L18.6404 23.8788H17.637C16.4361 23.8788 15.7287 24.1749 14.9556 25.0303C14.1495 25.9186 14.0015 26.6753 14.0673 29.3896C14.1166 31.5939 14.1331 31.7584 14.5608 32.3836C15.2846 33.4857 16.0084 33.8147 17.8015 33.9134L19.3642 33.9957L19.9564 35.5913C20.7296 37.6147 21.6673 39.0788 23.2958 40.7732C24.3651 41.8753 24.6119 42.2208 24.6777 42.7636C24.7599 43.3723 24.4638 45.5931 24.2993 45.5931C24.2664 45.5931 23.8716 45.3957 23.4274 45.1489L22.6378 44.7048L20.8119 44.9022C18.5746 45.1489 17.1599 45.5602 15.3997 46.4978C12.9322 47.7974 10.9417 49.6234 9.44476 51.91C7.58588 54.7887 6.51662 58.8849 5.89151 65.4156C5.56251 68.8208 5.29931 76.7827 5.49671 77.2926C5.56251 77.49 5.77636 77.7368 5.95731 77.819C6.18762 77.9506 14.1166 78 31.7841 78C57.0846 78 57.2984 78 57.6274 77.671C58.0222 77.2762 58.0058 77.4736 57.9729 73.8874C57.9071 66.6823 57.101 59.8061 55.8837 55.9074C53.959 49.8208 48.7937 45.5602 42.5261 44.9022L40.7331 44.7212L39.9435 45.1489C39.5157 45.3957 39.1045 45.5931 39.0387 45.5931C38.9071 45.5931 38.6274 44.5238 38.4629 43.3229L38.3807 42.6156L40.2067 40.8225L42.0491 39.013H43.8093C45.9807 39.013 46.7374 38.7004 47.5105 37.4667C47.9383 36.7593 48.0041 36.4961 48.0534 35.032C48.1192 33.568 48.1686 33.3541 48.5305 32.9593C49.353 32.071 49.4681 31.6597 49.5339 29.3074C49.5833 27.942 49.5339 26.8234 49.4188 26.3792C49.0404 24.9974 47.5928 23.8952 46.1616 23.8788C45.7668 23.8788 45.4543 23.8459 45.4543 23.813C45.4543 23.7801 45.7339 23.1714 46.0794 22.4641C46.6551 21.2139 46.688 21.0987 46.688 19.4372C46.688 17.7922 46.6551 17.6442 46.1287 16.5584C45.6846 15.6701 45.1582 15.0121 43.8915 13.7619C42.74 12.5939 42.1807 11.9195 42.0326 11.4589C41.6707 10.4061 40.9798 9.51775 40.0422 8.95845C38.5287 8.05369 35.3374 7.57663 32.6231 7.87273ZM37.2456 10.4061C38.5945 10.6199 39.2361 10.9983 39.598 11.8043C39.7625 12.1662 40.0422 12.742 40.2067 13.1204C40.3876 13.5152 41.1114 14.3377 41.9668 15.1108C43.8257 16.8052 44.385 17.8416 44.385 19.5195C44.385 20.5065 44.3028 20.852 43.7764 21.9377C43.4473 22.645 43.1019 23.2208 43.0196 23.2208C42.9374 23.2208 42.411 22.8095 41.8517 22.316C41.2924 21.8225 40.7331 21.4113 40.585 21.4113C40.4534 21.4113 39.6967 21.6745 38.8906 21.987C36.0777 23.0727 34.9426 23.303 32.2119 23.303C29.3166 23.303 28.3625 23.0892 26.1417 21.987C25.3357 21.5758 24.5461 21.2468 24.3816 21.2468C24.2335 21.2468 23.8058 21.4935 23.4439 21.7896C22.5391 22.5463 21.108 23.4511 20.9928 23.3359C20.8283 23.155 20.5816 20.1939 20.6638 19.0589C20.9106 15.4069 24.7435 12.1662 30.6326 10.6364C32.7383 10.0935 34.7287 10.0277 37.2456 10.4061ZM25.5824 24.3723C26.1746 24.652 27.3755 25.0632 28.2803 25.2935C29.7937 25.6883 30.0898 25.7048 32.6231 25.639C35.4854 25.5403 36.6041 25.3429 38.9893 24.4545L40.1738 24.0104L41.1608 24.8165L42.1642 25.6061L42.1149 29.2251C42.0655 32.7948 42.0491 32.8606 41.5391 34.374C41.2595 35.213 40.8976 36.0684 40.7495 36.2987L40.4863 36.71H36.308C32.3435 36.71 32.1132 36.7264 31.8006 37.039C31.6196 37.2199 31.4716 37.5654 31.4716 37.8121C31.488 38.8978 31.8664 39.013 35.6006 39.013H38.759L38.3807 39.4242C37.7885 40.0494 36.0612 41.1186 35.0742 41.4641C32.6231 42.3359 29.6456 42.155 27.4413 41.0199C26.6846 40.6416 25.3686 39.6216 24.7106 38.9143C23.2958 37.368 22.7036 36.3645 21.9798 34.2918C21.5686 33.0909 21.5357 32.7948 21.4699 29.3896L21.4041 25.7541L22.2101 25.3922C22.6378 25.1784 23.3287 24.7671 23.74 24.4545C24.1512 24.1584 24.4967 23.8952 24.4967 23.8952C24.5132 23.8788 25.0067 24.1091 25.5824 24.3723ZM18.9694 28.8961V31.6104H18.0318C17.5054 31.6104 16.9954 31.5446 16.8967 31.4788C16.469 31.1991 16.3374 30.5576 16.3374 28.8139C16.3374 27.103 16.3538 26.9714 16.7487 26.5931C17.0777 26.2476 17.308 26.1818 18.0647 26.1818H18.9694V28.8961ZM46.869 26.5273C47.1486 26.8234 47.1815 27.1359 47.1815 29.0113C47.1815 31.5281 47.1322 31.6104 45.5859 31.6104H44.6318V28.8961V26.1818H45.5859C46.359 26.1818 46.6222 26.2476 46.869 26.5273ZM45.701 35.0978C45.701 35.7558 45.6188 36.2823 45.5036 36.3974C45.3885 36.5126 44.8456 36.6442 44.2863 36.6771C43.4967 36.7429 43.2993 36.71 43.3486 36.529C43.3815 36.3974 43.5789 35.7558 43.7928 35.0978L44.1712 33.897L44.9443 33.9463L45.701 33.9957V35.0978ZM27.7867 43.7013C28.5928 44.0303 30.8465 44.4416 31.8664 44.4416C32.327 44.4416 33.3798 44.2935 34.1859 44.1126C35.0084 43.9316 35.7815 43.7671 35.9131 43.7342C36.0777 43.7178 36.1764 43.9481 36.2751 44.6061C36.3573 45.0996 36.5218 45.8727 36.6699 46.3004C36.8179 46.7446 36.8673 47.1558 36.8015 47.2381C36.456 47.5507 31.6361 50.8571 31.5045 50.8571C31.3729 50.8571 31.0274 50.6268 28.0828 48.4554L26.2404 47.1065L26.5365 46.2017C26.701 45.7082 26.882 44.8857 26.9478 44.3758C27.0136 43.8658 27.0958 43.4545 27.1287 43.4545C27.1781 43.4545 27.4577 43.5697 27.7867 43.7013ZM23.4932 47.9784C29.1686 52.1567 31.1097 53.4892 31.488 53.4892C31.7677 53.4892 33.2647 52.5515 35.8967 50.7255C38.101 49.2121 40.1573 47.7974 40.4863 47.5836C41.0127 47.2381 41.1937 47.2052 42.4768 47.271C46.8032 47.5342 50.9486 50.5281 52.9391 54.8545C54.4196 58.0623 55.3573 64.1654 55.6041 72.1931L55.7028 75.697H51.5738H47.4283V68.9688V62.2242L47.0006 61.8952C46.4413 61.4675 46.1123 61.4675 45.553 61.8952L45.1253 62.2242V68.9688V75.697H31.7183H18.3114V68.9688V62.2242L17.8837 61.8952C17.308 61.4511 16.9132 61.4675 16.4196 61.961L16.0084 62.3558V69.0346V75.697H11.8629H7.73394L7.83264 72.1108C8.06294 64.6589 8.9019 58.7368 10.2015 55.4632C12.0768 50.7913 16.8638 47.271 21.437 47.2545C22.4404 47.2381 22.5556 47.2874 23.4932 47.9784Z" fill="#1E1E20"/>
</svg>
