<svg width="80" height="80" viewBox="0 0 80 80" fill="none" xmlns="http://www.w3.org/2000/svg">
<path d="M7.50734 4.77505C6.84702 4.99066 5.71504 6.14959 5.5129 6.83685C5.39162 7.26808 5.35119 13.9387 5.35119 36.0391C5.35119 67.0876 5.32424 65.6457 6.07889 67.5323C6.80659 69.3246 8.11375 70.9013 9.77129 71.9928C15.512 75.7661 23.2741 72.4645 24.5678 65.6726C24.716 64.8641 24.7565 62.6675 24.7565 54.0699V43.4778L37.1947 31.0396C48.8918 19.356 49.6599 18.6148 50.0911 18.6148C50.5224 18.6148 50.8997 18.9517 55.4411 23.5065C59.9959 28.0479 60.3328 28.4252 60.3328 28.8565C60.3328 29.3012 59.376 30.2714 43.461 46.1999C27.1821 62.4788 26.5892 63.0852 26.5892 63.5704C26.5892 64.1633 27.0069 64.5676 27.6403 64.5676C28.0176 64.5676 28.5162 64.1094 32.1682 60.4574L36.2784 56.3473H53.8779H71.4774L71.8412 56.6842L72.1916 57.0076V63.8668V70.7261L71.8547 71.0899L71.5313 71.4403H47.935H24.3387L24.0153 71.7907C23.5706 72.2758 23.5706 72.8418 24.0288 73.2595L24.3926 73.5964H47.9754C66.087 73.5964 71.6795 73.556 72.1107 73.4347C72.8519 73.2191 73.9704 72.1006 74.186 71.3594C74.3073 70.9552 74.3477 68.9203 74.3477 63.8938C74.3477 58.8673 74.3073 56.8324 74.186 56.4281C73.9704 55.687 72.8519 54.5685 72.1107 54.3529C71.693 54.2316 67.5963 54.1911 54.9964 54.1911H38.4345L50.1855 42.4267C59.3087 33.317 62.0038 30.541 62.206 30.0693C62.5563 29.2877 62.5563 28.2905 62.206 27.5089C62.0038 27.0642 60.6697 25.6357 57.1256 22.0646C53.0154 17.941 52.1934 17.1863 51.5061 16.8494C51.0075 16.6069 50.4819 16.4586 50.1316 16.4586C48.7975 16.4586 49.1074 16.1757 36.5209 28.7621L24.7565 40.5131V23.9512C24.7565 11.3513 24.716 7.25461 24.5948 6.83685C24.3792 6.09568 23.2607 4.97718 22.5195 4.76157C21.7783 4.54595 8.20808 4.55943 7.50734 4.77505ZM22.25 7.0929L22.6003 7.41632L22.5734 36.4299L22.533 65.4435L22.25 66.1847C21.3336 68.5565 19.7839 70.1736 17.6143 70.9821C16.7248 71.3055 16.4149 71.3594 15.0538 71.3594C13.6928 71.3594 13.3828 71.3055 12.4934 70.9821C10.4855 70.2275 8.72017 68.4891 7.96552 66.4946L7.57472 65.4435L7.53429 36.4299L7.50734 7.41632L7.85771 7.0929L8.22156 6.756H15.0538H21.8861L22.25 7.0929Z" fill="#1E1E20"/>
<path d="M10.0007 9.249L9.66382 9.57242V26.1343V42.6962L10.0007 43.06L10.3241 43.4104H15.0542H19.7842L20.1076 43.06L20.4445 42.6962V26.1343V9.57242L20.1076 9.249L19.7842 8.9121H15.0542H10.3241L10.0007 9.249ZM18.2884 26.1612V41.2543H15.0542H11.82V39.0981V36.942H14.1782H16.55L16.8734 36.5916C17.3046 36.1199 17.3046 35.5405 16.8734 35.1227C16.55 34.7858 16.5096 34.7858 14.1782 34.7858H11.82V32.6297V30.4735H14.1782H16.55L16.8734 30.1232C17.3046 29.6515 17.3046 29.072 16.8734 28.6543C16.55 28.3174 16.5096 28.3174 14.1782 28.3174H11.82V26.1612V24.0051H14.1782H16.55L16.8734 23.6547C17.3046 23.1831 17.3046 22.6036 16.8734 22.1859C16.55 21.849 16.5096 21.849 14.1782 21.849H11.82V19.6928V17.5367H14.1782H16.55L16.8734 17.1863C17.3046 16.7146 17.3046 16.1352 16.8734 15.7174C16.55 15.3805 16.5096 15.3805 14.1782 15.3805H11.82V13.2244V11.0682H15.0542H18.2884V26.1612Z" fill="#D22530"/>
<path d="M13.6796 59.8376C12.7093 60.2284 12.1164 60.6326 11.6178 61.293C10.5936 62.6271 10.4723 64.2307 11.2674 65.8343C12.3455 68.0309 14.7307 68.799 16.9946 67.6805C19.1777 66.6025 19.9593 64.2172 18.8543 61.9667C17.8841 59.9993 15.6336 59.0829 13.6796 59.8376ZM15.9974 62.0341C16.6712 62.3845 17.2103 63.1661 17.2103 63.8264C17.2103 64.8775 16.1187 66.0365 15.1215 66.0499C14.0704 66.0499 12.9115 64.9584 12.898 63.9612C12.898 63.2874 13.437 62.3845 14.0434 62.0476C14.7307 61.6568 15.2428 61.6568 15.9974 62.0341Z" fill="#1E1E20"/>
<path d="M37.9227 33.4113C26.3874 44.9467 26.2391 45.1084 26.2391 45.6205C26.2391 46.1326 26.3469 46.2673 29.5138 49.4342C32.6941 52.6145 32.7884 52.7088 33.314 52.7088C33.853 52.7088 33.9473 52.6279 45.5501 41.0117C56.6138 29.948 57.2337 29.3012 57.2337 28.8565C57.2202 28.4252 56.9507 28.1018 53.959 25.0428C50.7653 21.7816 50.6844 21.7142 50.1588 21.7142C49.6198 21.7142 49.5255 21.8086 37.9227 33.4113ZM52.4093 26.5251L54.6598 28.7891L44.0004 39.4755L33.3409 50.1619L31.077 47.8979L28.813 45.634L30.2819 44.0842L31.7508 42.5345L33.4218 44.192C34.9041 45.6474 35.1467 45.8361 35.551 45.8361C36.1439 45.8361 36.5617 45.5396 36.656 45.068C36.7638 44.5155 36.6156 44.3133 34.9176 42.5884L33.3679 41.0387L34.8907 39.5294L36.4134 38.0201L37.9632 39.5698C38.8121 40.4053 39.6881 41.1734 39.8902 41.2408C40.6179 41.5238 41.4804 40.7287 41.2513 39.9876C41.1974 39.8393 40.4292 38.9634 39.5398 38.047L37.9093 36.403L39.4455 34.9206L40.9952 33.4517L42.6258 35.0689C44.1082 36.5242 44.2968 36.6725 44.7415 36.6725C45.065 36.6725 45.3345 36.5782 45.5097 36.403C45.6848 36.2278 45.7792 35.9583 45.7792 35.6348C45.7792 35.1901 45.6309 35.0015 44.1621 33.5191L42.545 31.8751L44.0677 30.3658L45.577 28.8565L47.1807 30.4601C48.0701 31.3495 48.9325 32.1042 49.1077 32.1581C49.8758 32.3467 50.6574 31.4708 50.361 30.7566C50.2801 30.5544 49.5255 29.7054 48.6765 28.8565L47.1402 27.3202L48.5822 25.8109C49.3772 24.9754 50.051 24.2881 50.0915 24.2881C50.1319 24.2747 51.1695 25.2853 52.4093 26.5251Z" fill="#D22530"/>
<path d="M35.8744 58.8403L35.5375 59.1637V63.8668V68.5699L35.8744 68.9337L36.1978 69.2841H52.7597H69.3215L69.6854 68.9337L70.0358 68.5699V63.8668V59.1637L69.6989 58.8403L69.3754 58.5034H52.7866H36.1978L35.8744 58.8403ZM42.0059 63.0043C42.0059 65.2953 42.0059 65.3492 42.3428 65.6995C42.774 66.1712 43.3939 66.1712 43.8251 65.6995C44.162 65.3492 44.162 65.2953 44.162 63.0043V60.6595H46.3182H48.4743V63.0043C48.4743 65.2953 48.4743 65.3492 48.8112 65.6995C49.2425 66.1712 49.8623 66.1712 50.2936 65.6995C50.6305 65.3492 50.6305 65.2953 50.6305 63.0043V60.6595H52.7866H54.9428V63.0043C54.9428 65.2953 54.9428 65.3492 55.2797 65.6995C55.7109 66.1712 56.3308 66.1712 56.762 65.6995C57.0989 65.3492 57.0989 65.2953 57.0989 63.0043V60.6595H59.255H61.4112V63.0043C61.4112 65.2953 61.4112 65.3492 61.7481 65.6995C61.9637 65.9286 62.2063 66.0499 62.4893 66.0499C62.7722 66.0499 63.0148 65.9286 63.2304 65.6995C63.5673 65.3492 63.5673 65.2953 63.5673 63.0043V60.6595H65.7235H67.8796V63.8938V67.128H52.7866H37.6936V63.8938V60.6595H39.8498H42.0059V63.0043Z" fill="#D22530"/>
</svg>
