<svg width="80" height="80" viewBox="0 0 80 80" fill="none" xmlns="http://www.w3.org/2000/svg">
<mask id="path-1-inside-1_109_3131" fill="white">
<rect x="14.3096" y="13.9915" width="47.6988" height="47.6987" rx="1.58996"/>
</mask>
<rect x="14.3096" y="13.9915" width="47.6988" height="47.6987" rx="1.58996" stroke="#D22530" stroke-width="5.08787" mask="url(#path-1-inside-1_109_3131)"/>
<path d="M40.385 25.7574C40.385 27.8648 38.6765 29.5733 36.5691 29.5733C34.4616 29.5733 32.7532 27.8648 32.7532 25.7574C32.7532 23.6499 34.4616 21.9415 36.5691 21.9415C38.6765 21.9415 40.385 23.6499 40.385 25.7574Z" stroke="#1E1E20" stroke-width="2.54393"/>
<g clip-path="url(#clip0_109_3131)">
<path fill-rule="evenodd" clip-rule="evenodd" d="M10.7434 55.41C11.0694 55.41 11.3827 55.2835 11.6173 55.0571L27.0387 40.178C27.6547 39.5837 28.6307 39.5837 29.2467 40.178L44.6681 55.0571C44.9027 55.2835 45.216 55.41 45.542 55.41C46.6742 55.41 47.2307 54.0317 46.4159 53.2456L46.0225 52.866L29.2467 36.6801C28.6307 36.0858 27.6547 36.0858 27.0387 36.6801L10.2629 52.866L9.86951 53.2456C9.05472 54.0317 9.61121 55.41 10.7434 55.41Z" fill="#1E1E20"/>
<path fill-rule="evenodd" clip-rule="evenodd" d="M32.6676 50.7196C32.9946 50.7196 33.3085 50.5913 33.5419 50.3624L51.1326 33.1094C51.8746 32.3816 53.0626 32.3816 53.8046 33.1094L71.3953 50.3624C71.6288 50.5913 71.9427 50.7196 72.2696 50.7196C73.3879 50.7196 73.9423 49.3625 73.144 48.5795L72.7322 48.1756L53.8046 29.6115C53.0626 28.8837 51.8746 28.8837 51.1326 29.6115L32.2051 48.1756L31.7933 48.5795C30.9949 49.3625 31.5493 50.7196 32.6676 50.7196Z" fill="#1E1E20"/>
</g>
<path fill-rule="evenodd" clip-rule="evenodd" d="M63.2803 0C62.5778 0 62.0083 0.569479 62.0083 1.27197V11.7657C62.0083 12.6561 62.0083 13.1014 62.1816 13.4415C62.334 13.7407 62.5773 13.9839 62.8764 14.1363C63.2165 14.3096 63.6618 14.3096 64.5522 14.3096H75.046C75.7485 14.3096 76.3179 13.7401 76.3179 13.0377C76.3179 12.3352 75.7485 11.7657 75.046 11.7657H67.0962C66.2057 11.7657 65.7605 11.7657 65.4204 11.5924C65.1212 11.44 64.878 11.1967 64.7255 10.8976C64.5522 10.5574 64.5522 10.1122 64.5522 9.22176V1.27197C64.5522 0.56948 63.9828 0 63.2803 0Z" fill="#D22530"/>
<path fill-rule="evenodd" clip-rule="evenodd" d="M0 13.0376C0 13.7401 0.569479 14.3096 1.27197 14.3096H11.7657C12.6562 14.3096 13.1014 14.3096 13.4415 14.1363C13.7407 13.9838 13.9839 13.7406 14.1363 13.4414C14.3096 13.1013 14.3096 12.6561 14.3096 11.7656V1.27192C14.3096 0.569428 13.7402 -5.05447e-05 13.0377 -5.05447e-05C12.3352 -5.05447e-05 11.7657 0.569428 11.7657 1.27192V9.2217C11.7657 10.1122 11.7657 10.5574 11.5924 10.8975C11.44 11.1967 11.1967 11.4399 10.8976 11.5923C10.5575 11.7656 10.1122 11.7656 9.22176 11.7656H1.27197C0.56948 11.7656 0 12.3351 0 13.0376Z" fill="#D22530"/>
<path fill-rule="evenodd" clip-rule="evenodd" d="M76.318 62.9623C76.318 62.2598 75.7485 61.6904 75.046 61.6904H64.5523C63.6618 61.6904 63.2166 61.6904 62.8765 61.8637C62.5773 62.0161 62.3341 62.2593 62.1817 62.5585C62.0084 62.8986 62.0084 63.3438 62.0084 64.2343V74.728C62.0084 75.4305 62.5778 76 63.2803 76C63.9828 76 64.5523 75.4305 64.5523 74.728V66.7782C64.5523 65.8878 64.5523 65.4425 64.7256 65.1024C64.878 64.8033 65.1213 64.56 65.4204 64.4076C65.7605 64.2343 66.2058 64.2343 67.0962 64.2343H75.046C75.7485 64.2343 76.318 63.6648 76.318 62.9623Z" fill="#D22530"/>
<path fill-rule="evenodd" clip-rule="evenodd" d="M13.0376 75.6821C13.7401 75.6821 14.3096 75.1126 14.3096 74.4101L14.3096 63.9164C14.3096 63.0259 14.3096 62.5807 14.1363 62.2406C13.9838 61.9414 13.7406 61.6982 13.4414 61.5457C13.1013 61.3724 12.6561 61.3724 11.7656 61.3724H1.27191C0.569418 61.3724 -6.00815e-05 61.9419 -6.00815e-05 62.6444C-6.00815e-05 63.3469 0.569418 63.9164 1.27191 63.9164H9.2217C10.1122 63.9164 10.5574 63.9164 10.8975 64.0897C11.1967 64.2421 11.4399 64.4853 11.5923 64.7845C11.7656 65.1246 11.7656 65.5699 11.7656 66.4603L11.7656 74.4101C11.7656 75.1126 12.3351 75.6821 13.0376 75.6821Z" fill="#D22530"/>
<defs>
<clipPath id="clip0_109_3131">
<rect width="42.6109" height="27.0293" fill="white" transform="translate(16.8538 28.3012)"/>
</clipPath>
</defs>
</svg>
