<svg width="80" height="80" viewBox="0 0 80 80" fill="none" xmlns="http://www.w3.org/2000/svg">
<path d="M4.4811 12.9925C3.18787 13.5188 2.4811 14.1654 1.92471 15.3083L1.42847 16.3158V36.6918V57.0677L1.92471 58.0752C2.4811 59.2181 3.18787 59.8647 4.4811 60.391C5.30817 60.7369 5.50365 60.7519 9.17283 60.7519H13.0074L13.654 61.8045C14.06 62.4662 14.6615 63.1579 15.233 63.6391C18.7969 66.6015 23.8194 66.406 27.0676 63.1579C29.9698 60.2707 30.4059 55.7594 28.1352 52.3158C26.8871 50.406 25.5939 49.4286 23.5037 48.782C22.4059 48.4361 22.0751 48.391 20.5713 48.4511C18.6014 48.5263 17.8495 48.7519 16.2856 49.7143C13.7142 51.3083 12.045 54.4211 12.2104 57.3233L12.2706 58.3609L8.78185 58.3158C4.842 58.2707 4.78185 58.2557 4.10516 57.0527L3.75929 56.4662V36.7218C3.75929 14.9023 3.69914 16.3459 4.75178 15.5489L5.30817 15.1128L27.654 15.0827L49.9999 15.0376L50.6014 15.3835C50.9322 15.5639 51.3533 15.985 51.5337 16.3158L51.8796 16.9173V37.6241V58.3459H42.045H32.2255L31.8194 58.7218C31.2931 59.203 31.2931 59.8948 31.8194 60.376L32.2255 60.7519H42.4661H52.7067L53.1578 61.5188C53.7292 62.4963 55.4134 64.0902 56.3758 64.5865C57.4736 65.1278 59.1879 65.5639 60.3006 65.5639C61.4134 65.5639 63.1277 65.1278 64.2255 64.5865C65.1728 64.0902 66.8721 62.4963 67.4435 61.5339L67.8946 60.7669L71.2781 60.7218L74.6766 60.6767L75.6841 60.1805C76.842 59.609 77.5488 58.797 78.045 57.4887C78.3458 56.6767 78.3608 56.4361 78.3157 48.5113C78.2706 41.4436 78.2405 40.2857 78.03 39.7444C77.654 38.782 70.6014 28.797 69.8495 28.1955C68.6014 27.1579 68.5413 27.1579 62.1052 27.0978L56.3006 27.0527L55.8946 27.4286C55.3533 27.9248 55.3533 28.6015 55.8796 29.0978L56.2856 29.4737H61.7743C66.9773 29.4737 67.3082 29.4887 67.8796 29.7745C68.2255 29.9399 68.6014 30.2256 68.7367 30.4211C68.8721 30.6015 70.421 32.812 72.1804 35.3384C73.9397 37.8647 75.4435 40.0151 75.5337 40.1053C75.639 40.2557 74.2405 40.3008 68.5864 40.3008H61.5037V37.2933V34.2857H64.1352H66.7819L67.1428 33.8948C67.624 33.3835 67.624 32.782 67.1428 32.2707L66.7819 31.8797H63.3382H59.8946L59.4886 32.2557L59.0976 32.6166V37.2933V41.9699L59.4886 42.3308L59.8946 42.7068H67.9097H75.9398V45.1128V47.5188H74.5262C73.248 47.5188 73.0976 47.5489 72.7217 47.8948C72.4661 48.1354 72.3307 48.406 72.3307 48.7218C72.3307 49.0376 72.4661 49.3083 72.7217 49.5489C73.0976 49.8948 73.248 49.9248 74.5262 49.9248H75.9398V51.1278V52.3308H74.5262C73.248 52.3308 73.0976 52.3609 72.7217 52.7068C72.1954 53.188 72.1954 53.8797 72.7217 54.3609C73.0976 54.7068 73.248 54.7369 74.5262 54.7369H75.9398V55.594C75.9398 56.5865 75.5337 57.4436 74.842 57.9549C74.451 58.2406 74.1804 58.2707 71.5037 58.3158L68.6014 58.3609L68.6766 57.4136C68.9623 53.7293 65.9849 49.8496 62.1803 48.9474C59.7443 48.376 56.6616 49.1278 54.9322 50.7218L54.2856 51.3233V33.9699V16.6166L53.9247 15.7594C53.3984 14.4662 52.7518 13.7594 51.6089 13.203L50.6014 12.7068L27.9698 12.6767L5.33824 12.6316L4.4811 12.9925ZM21.8345 51.2933C22.9623 51.5339 23.9097 52.0602 24.7819 52.9023C27.1578 55.2181 27.1728 59.0075 24.8119 61.3534C22.4661 63.7143 18.6766 63.6993 16.3608 61.3233C14.03 58.9324 14.03 55.3534 16.3608 52.9624C17.8194 51.4587 19.7894 50.8572 21.8345 51.2933ZM61.5337 51.2933C62.6616 51.5339 63.6089 52.0602 64.4811 52.9023C66.857 55.2181 66.8721 59.0075 64.5112 61.3534C62.1653 63.7143 58.3758 63.6993 56.06 61.3233C53.7292 58.9324 53.7292 55.3534 56.06 52.9624C57.5187 51.4587 59.4886 50.8572 61.5337 51.2933Z" fill="#1E1E20"/>
<path d="M19.3984 53.7294C18.6616 53.97 17.3984 55.2632 17.1729 56.0301C16.7518 57.4436 17.0526 58.5715 18.1202 59.6241C19.639 61.1579 21.5638 61.1579 23.0826 59.6241C24.6165 58.1053 24.6165 56.1805 23.0826 54.6617C22.03 53.594 20.7969 53.2933 19.3984 53.7294ZM21.4135 56.3158C22.1804 57.0376 21.6541 58.3459 20.5713 58.3459C20.03 58.3459 19.3984 57.6993 19.3984 57.1429C19.3984 56.9173 19.5638 56.5564 19.7744 56.3309C20.2405 55.8196 20.8721 55.8196 21.4135 56.3158Z" fill="#1E1E20"/>
<path d="M59.0976 53.7294C58.3608 53.97 57.0976 55.2632 56.8721 56.0301C56.451 57.4437 56.7518 58.5715 57.8194 59.6241C58.8721 60.6918 59.9999 60.9925 61.4134 60.5715C62.2405 60.3309 63.4886 59.0827 63.7292 58.2557C64.1503 56.8421 63.8495 55.7143 62.7818 54.6617C61.7292 53.594 60.4961 53.2933 59.0976 53.7294ZM61.1127 56.3158C61.8796 57.0376 61.3533 58.3459 60.2706 58.3459C59.7292 58.3459 59.0976 57.6993 59.0976 57.1429C59.0976 56.9173 59.263 56.5564 59.4736 56.3309C59.9397 55.8196 60.5713 55.8196 61.1127 56.3158Z" fill="#1E1E20"/>
<path d="M15.3081 20.2106C14.0149 20.7369 13.3081 21.3835 12.7517 22.5263L12.2555 23.5339V33.0827V42.6316L12.7517 43.6542C13.3232 44.8121 14.1352 45.5188 15.4435 46.0151C16.2555 46.3158 16.4961 46.3158 26.8269 46.2857L37.3683 46.2406L38.3758 45.7444C39.5187 45.188 40.1653 44.4812 40.6916 43.188L41.0525 42.3309V33.0827V23.8346L40.6916 22.9775C40.1653 21.6842 39.5187 20.9775 38.3758 20.4211L37.3683 19.9248L26.7668 19.8948L16.1653 19.8497L15.3081 20.2106ZM21.8044 24.0602V25.8647H18.1953H14.5863V25.0527C14.5863 24.1053 14.7668 23.5339 15.2329 23.0226C15.8495 22.3609 16.2856 22.2707 19.1427 22.2557H21.8044V24.0602ZM29.0224 26.5414V30.8271L28.0149 30.1504C27.4585 29.7745 26.8269 29.4737 26.6164 29.4737C26.4059 29.4737 25.7743 29.7745 25.2179 30.1504L24.2104 30.8271V26.5414V22.2557H26.6164H29.0224V26.5414ZM37.2931 22.5564C37.6089 22.7218 38.0299 23.0677 38.2254 23.3384L38.5713 23.8346V33.1128C38.5713 42.2857 38.5713 42.391 38.2555 42.8121C38.0901 43.0376 37.6841 43.3835 37.3532 43.5639L36.7668 43.9098L26.4359 43.8647C16.2705 43.8346 16.1051 43.8346 15.6991 43.5188C15.4735 43.3534 15.1427 43.0226 14.9773 42.797C14.6765 42.391 14.6615 42.1805 14.6164 35.3233L14.5713 28.2707H18.1953H21.8044V30.8873V33.4888L22.1953 33.8948C22.4209 34.1053 22.7668 34.2857 22.9773 34.2857C23.2179 34.2857 24.045 33.8497 24.9923 33.2181L26.6164 32.1354L28.1653 33.173C29.9247 34.3459 30.6164 34.5113 31.1427 33.8346C31.3984 33.5038 31.4284 33.188 31.4284 30.8572V28.2707H33.4585C35.4735 28.2707 35.5036 28.2707 35.8645 27.8797C36.3457 27.3685 36.3457 26.767 35.8645 26.2557C35.5036 25.8647 35.4735 25.8647 33.4585 25.8647H31.4284V24.0602V22.2557H34.06C36.3908 22.2557 36.7668 22.2857 37.2931 22.5564Z" fill="#D22530"/>
</svg>
