<svg width="42" height="43" viewBox="0 0 42 43" fill="none" xmlns="http://www.w3.org/2000/svg">
<path d="M22.0316 28.5882C14.1392 28.5882 9.63752 23.0702 9.44995 13.8882H13.4034C13.5332 20.6275 16.4478 23.4822 18.7563 24.0708V13.8882H22.4789V19.7005C24.7586 19.4503 27.1537 16.8017 27.9617 13.8882H31.6842C31.3798 15.3992 30.7728 16.8299 29.9014 18.0908C29.03 19.3517 27.9129 20.4156 26.6198 21.2161C28.0632 21.9475 29.338 22.9828 30.3602 24.2535C31.3824 25.5243 32.1287 27.0017 32.55 28.5882H28.4523C28.0741 27.2102 27.3056 25.9766 26.243 25.0421C25.1804 24.1077 23.871 23.5138 22.4789 23.335V28.5882H22.0316V28.5882Z" fill="white"/>
</svg>
