<svg width="42" height="43" viewBox="0 0 42 43" fill="none" xmlns="http://www.w3.org/2000/svg">
<path d="M29.3232 12.9036C27.2488 10.8364 24.4829 9.68799 21.5634 9.68799C15.4939 9.68799 10.5768 14.588 10.5768 20.6364C10.5768 22.5505 11.1146 24.4645 12.0366 26.0724L10.5 31.738L16.339 30.2067C17.9524 31.0489 19.7195 31.5083 21.5634 31.5083C27.6329 31.5083 32.55 26.6083 32.55 20.5599C32.4732 17.7271 31.3976 14.9708 29.3232 12.9036ZM26.8646 24.5411C26.6341 25.1536 25.5585 25.7661 25.0207 25.8427C24.5598 25.9192 23.9451 25.9192 23.3305 25.7661C22.9463 25.613 22.4085 25.4599 21.7939 25.1536C19.028 24.0052 17.261 21.2489 17.1073 21.0192C16.9537 20.8661 15.9549 19.5645 15.9549 18.1864C15.9549 16.8083 16.6463 16.1958 16.8768 15.8895C17.1073 15.5833 17.4146 15.5833 17.6451 15.5833C17.7988 15.5833 18.0293 15.5833 18.1829 15.5833C18.3366 15.5833 18.5671 15.5067 18.7976 16.0427C19.028 16.5786 19.5659 17.9567 19.6427 18.0333C19.7195 18.1864 19.7195 18.3396 19.6427 18.4927C19.5659 18.6458 19.489 18.7989 19.3354 18.952C19.1817 19.1052 19.028 19.3349 18.9512 19.4114C18.7976 19.5645 18.6439 19.7177 18.7976 19.9474C18.9512 20.2536 19.489 21.0958 20.3341 21.8614C21.4098 22.7802 22.2549 23.0864 22.5622 23.2396C22.8695 23.3927 23.0232 23.3161 23.1768 23.163C23.3305 23.0099 23.8683 22.3974 24.022 22.0911C24.1756 21.7849 24.4061 21.8614 24.6366 21.938C24.8671 22.0146 26.25 22.7036 26.4805 22.8567C26.7878 23.0099 26.9415 23.0864 27.0183 23.163C27.0951 23.3927 27.0951 23.9286 26.8646 24.5411Z" fill="white"/>
</svg>
