<svg width="64" height="64" viewBox="0 0 64 64" fill="none" xmlns="http://www.w3.org/2000/svg">
<path d="M18.833 12.304C12.0106 17.9744 6.34015 22.7488 6.19935 22.9152C6.02015 23.1456 5.98175 23.3376 6.04575 23.6704C6.12255 24.0544 6.40415 24.3488 8.23455 25.8208C9.39935 26.768 10.3338 27.5744 10.3082 27.6128C10.2954 27.664 9.34815 28.4576 8.20895 29.392C7.06975 30.3264 6.09695 31.1968 6.05855 31.3248C5.85375 31.9776 6.09695 32.272 8.24735 34.0256C9.39935 34.96 10.3338 35.7664 10.3082 35.8048C10.2954 35.856 9.34815 36.6624 8.19615 37.584C6.08415 39.312 5.86655 39.5808 6.08415 40.208C6.14815 40.4128 10.5258 44.1376 18.705 50.96C28.8682 59.4208 31.3002 61.392 31.5946 61.392C31.889 61.392 34.3082 59.4464 44.3562 51.0752C51.5114 45.1232 56.849 40.592 56.9898 40.3488C57.3994 39.6448 57.2458 39.4272 55.0186 37.5712C53.8922 36.624 52.9834 35.8176 52.9962 35.7792C53.0218 35.728 53.9306 34.9472 55.0186 34.0512C56.1834 33.0784 57.041 32.2592 57.1178 32.0672C57.3482 31.4144 57.1306 31.1456 55.0186 29.3792C53.8922 28.432 52.9834 27.6256 52.9962 27.5872C53.0218 27.536 53.905 26.768 54.9802 25.8848C57.489 23.8112 57.6042 23.6448 57.041 22.928C56.8874 22.7232 51.2042 17.936 44.4202 12.2784C33.425 3.12637 32.0298 1.99997 31.6458 1.99997C31.2618 1.99997 29.8538 3.12637 18.833 12.304ZM43.1274 13.968C49.3738 19.1776 54.4938 23.4656 54.4938 23.504C54.4938 23.632 31.7482 42.512 31.5946 42.512C31.441 42.512 8.69535 23.632 8.69535 23.504C8.70815 23.3632 31.5306 4.43197 31.6458 4.47037C31.7098 4.49597 36.8682 8.77117 43.1274 13.968ZM31.6458 45.008C32.0298 45.008 33.1434 44.1248 41.7194 36.9696L51.3706 28.9312L52.9066 30.2368C53.7514 30.9664 54.4426 31.6192 54.4426 31.7088C54.4426 31.7984 52.9706 33.0912 51.1786 34.576C49.3866 36.0608 44.2538 40.3104 39.7866 44.0224C35.3194 47.7344 31.6074 50.7552 31.5434 50.7296C31.377 50.6784 8.69535 31.7728 8.69535 31.696C8.69535 31.6576 9.42495 31.0304 10.321 30.288L11.9338 28.944L21.5722 36.9696C30.1482 44.1248 31.2618 45.008 31.6458 45.008ZM31.6458 53.2C32.0298 53.2 33.1434 52.3168 41.7322 45.1616L51.3706 37.1232L52.9066 38.4672C53.7514 39.1968 54.4554 39.8368 54.4682 39.8752C54.5066 39.9904 31.7738 58.896 31.5946 58.896C31.441 58.896 8.69535 40.016 8.69535 39.888C8.69535 39.8496 9.42495 39.2224 10.321 38.48L11.9338 37.136L21.5722 45.1616C30.1482 52.3168 31.2618 53.2 31.6458 53.2Z" fill="#1E1E20"/>
<path d="M8.20895 29.392C9.34815 28.4576 10.2954 27.6639 10.3082 27.6128L11.9338 28.944L10.321 30.288C9.42495 31.0303 8.69535 31.6576 8.69535 31.6959C8.69535 31.7728 31.377 50.6784 31.5434 50.7296C31.6074 50.7552 35.3194 47.7344 39.7866 44.0224C44.2538 40.3104 49.3866 36.0608 51.1786 34.576C52.9706 33.0912 54.4426 31.7983 54.4426 31.7087C54.4426 31.6191 53.7514 30.9663 52.9066 30.2367L51.3706 28.9311L52.9962 27.5871C52.9834 27.6255 53.8922 28.4319 55.0186 29.3791C57.1306 31.1455 57.3482 31.4143 57.1178 32.0672C57.041 32.2591 56.1834 33.0784 55.0186 34.0511C53.9306 34.9471 53.0218 35.7279 52.9962 35.7792L51.3706 37.1231L41.7322 45.1616C33.1434 52.3168 32.0298 53.2 31.6458 53.2C31.2618 53.2 30.1482 52.3168 21.5722 45.1616L11.9338 37.136L10.3082 35.8047C10.3338 35.7663 9.39935 34.9599 8.24735 34.0255C6.09695 32.2719 5.85375 31.9775 6.05855 31.3247C6.09695 31.1967 7.06975 30.3263 8.20895 29.392Z" fill="#D22530"/>
</svg>
