<svg width="59" height="64" viewBox="0 0 59 64" fill="none" xmlns="http://www.w3.org/2000/svg">
<path d="M48.2106 10.4461V14.7718L47.2948 13.86C39.5158 6.19472 27.2737 5.13451 18.0842 11.3261C16.9895 12.0576 15.579 13.1921 15.579 13.3193C15.579 13.4253 16.8421 14.8248 16.9263 14.8248C16.9685 14.8248 17.2632 14.6021 17.579 14.3371C20.4632 11.9304 24.3895 10.1917 28.2106 9.61918C29.4 9.43894 32.8632 9.43894 34.0527 9.61918C38.8737 10.3295 43.0737 12.4711 46.3685 15.9062L47.4211 16.9982L42.3895 17.03L37.3685 17.0512L37.379 18.1114L37.4 19.1716H43.3369C49.9579 19.1716 49.8737 19.1822 50.1579 18.4931C50.2948 18.175 50.3158 17.1466 50.3158 12.1213V6.13111H49.2632H48.2106V10.4461Z" fill="#D22530"/>
<path d="M10.4 18.9913C7.85262 20.412 1.37893 24.2181 1.36841 24.3029C1.36841 24.515 2.34736 26.0735 2.46315 26.0311C2.5263 25.9993 4.09472 25.0981 5.94736 24.0167C7.78946 22.9247 9.3263 22.0553 9.33683 22.0765C9.35788 22.0977 9.24209 22.437 9.09472 22.8398C8.45262 24.5468 8.01051 26.4127 7.77893 28.4589C7.63157 29.7206 7.79999 33.5903 8.05262 35.0746C8.74736 39.0292 10.4842 42.8565 12.9895 45.9947C14.3684 47.7228 16.6105 49.7266 18.4842 50.9353C19.7158 51.7198 22.1474 52.9072 23.3158 53.3101C23.8316 53.4797 24.2631 53.6282 24.2737 53.6282C24.2947 53.6282 24.4316 53.2147 24.5789 52.6952C24.7263 52.1863 24.8737 51.7198 24.8947 51.6562C24.9158 51.582 24.5368 51.3911 23.9684 51.1897C22.7684 50.7656 20.7263 49.7796 19.6842 49.1117C15 46.1219 11.4842 41.0542 10.3158 35.6577C9.35788 31.2049 9.69472 26.9322 11.2947 23.0731L11.7158 22.0447L12.2 22.861C12.4631 23.3169 13.4631 25.0557 14.421 26.7308C15.3684 28.4059 16.2 29.7736 16.2526 29.7736C16.3684 29.7736 18 28.8194 18 28.7452C18 28.5649 12.4421 19.0655 12.2 18.8217C11.7684 18.4188 11.3684 18.4506 10.4 18.9913Z" fill="#1E1E20"/>
<path d="M52.7369 25.3419C52.2421 25.4586 51.8211 25.5752 51.8 25.5964C51.7895 25.607 51.8632 26.0947 51.979 26.6672C52.4316 28.83 52.5579 30.5369 52.4105 32.5725C51.9474 39.2094 48.5053 45.1784 42.9895 48.9103C40.7053 50.4688 37.3369 51.7834 34.6526 52.1863C33.9263 52.3029 33.7895 52.3029 33.8316 52.1757C33.8632 52.1015 34.8632 50.3416 36.0526 48.2636C37.2421 46.1856 38.2105 44.468 38.2105 44.4574C38.2105 44.415 36.5263 43.4502 36.4421 43.4502C36.4 43.4502 35.0947 45.6767 33.5369 48.4014C30.7158 53.3207 30.6 53.5646 30.7895 54.1583C30.8211 54.2749 31.2421 54.593 31.7158 54.8792C33.7369 56.0985 40.8526 60.2227 40.8842 60.1909C41.0211 60.0106 41.9053 58.3779 41.8737 58.3567C41.8526 58.3461 40.3053 57.4343 38.4211 56.3317C36.5369 55.2397 34.9895 54.3279 34.9684 54.3173C34.9474 54.2961 35.4 54.1795 35.9684 54.0523C39.7579 53.1935 43.5263 51.2851 46.5263 48.6876C50.4 45.348 53.1369 40.5983 54.1579 35.4563C54.7474 32.4453 54.7263 28.989 54.0947 26.0841C53.9684 25.5222 53.8211 25.1087 53.7579 25.1193C53.6842 25.1193 53.2316 25.2253 52.7369 25.3419Z" fill="#1E1E20"/>
</svg>
