<svg width="64" height="65" viewBox="0 0 64 65" fill="none" xmlns="http://www.w3.org/2000/svg">
<path d="M9.17897 5.45142C8.41579 5.7263 8.20669 5.85317 7.6317 6.40294C6.46079 7.50247 5.61397 9.36322 5.36307 11.3825C5.28988 11.9852 5.25852 16.3727 5.27943 24.6192C5.31079 38.3211 5.24807 37.2321 6.01125 37.3484C6.3667 37.4119 6.42943 37.3696 7.20306 36.6295C8.50988 35.382 9.34624 34.8745 10.9562 34.367C11.803 34.1027 12.0435 34.071 13.3608 34.071C15.5353 34.071 16.1939 34.2507 18.6403 35.4877C20.2398 36.3018 21.4421 36.7458 22.9476 37.0841C23.7735 37.2744 24.3798 37.3167 26.868 37.359L29.8162 37.4119L30.088 37.1264L30.3494 36.8304V27.7487V18.6564L30.8303 19.1427C33.7784 22.1241 37.793 19.7771 38.5666 14.6071C39.1625 10.6742 37.6989 6.78354 35.1793 5.58886L34.5834 5.30341L22.1426 5.28226C10.3394 5.26112 9.67033 5.26112 9.17897 5.45142ZM21.808 13.8988L28.6766 20.8449L28.6557 23.4245L28.6244 26.0042L19.0898 16.5208C13.8417 11.3085 9.54487 7.01614 9.54487 6.99499C9.54487 6.96328 10.7576 6.94213 12.2421 6.94213H14.9289L21.808 13.8988ZM25.5716 10.0927L28.6766 13.2327L28.6557 15.8018L28.6244 18.3604L22.9789 12.6512L17.3335 6.94213H19.8948H22.4562L25.5716 10.0927ZM30.2553 7.28045C29.628 8.24254 29.1575 9.38436 28.9485 10.4099L28.8335 10.9597L26.8471 8.95089L24.8607 6.94213H27.673H30.4748L30.2553 7.28045ZM34.2907 7.05843C36.3712 7.84079 37.5107 11.4883 36.7789 15.03C36.5593 16.0767 35.8693 17.4405 35.2525 18.0432C34.2907 18.9736 33.1616 19.0158 32.2521 18.1595C31.2484 17.208 30.6735 15.8864 30.4539 13.9939C30.1089 11.0442 31.1021 8.1051 32.7434 7.23816C33.3289 6.92099 33.7994 6.86812 34.2907 7.05843ZM28.6557 31.0261L28.6244 33.5846L17.8562 22.695C11.939 16.7111 7.07761 11.7103 7.0567 11.594C6.96261 11.0231 7.48533 9.46894 8.08124 8.51742L8.42624 7.97823L18.5567 18.2229L28.6766 28.457L28.6557 31.0261ZM17.6471 24.9258L28.3107 35.7203L26.1676 35.6568C24.8816 35.6251 23.7526 35.5405 23.3448 35.4454L22.6653 35.2974L14.8035 27.2729L6.9417 19.259L6.93124 16.6899C6.93124 15.2838 6.9417 14.1314 6.96261 14.1314C6.97306 14.1314 11.7821 18.9841 17.6471 24.9258ZM12.838 27.6641L18.6926 33.5846L17.783 33.2146C16.2358 32.5697 15.4099 32.4005 13.7894 32.3688L12.3362 32.3371L9.63896 29.6094L6.93124 26.8712V24.3126C6.93124 22.8959 6.9417 21.7435 6.96261 21.7435C6.97306 21.7435 9.61805 24.4078 12.838 27.6641ZM8.69806 31.0896L10.4021 32.8234L9.84805 33.0032C9.17897 33.2252 7.94533 33.8384 7.50624 34.1661C7.33897 34.293 7.12988 34.4304 7.06715 34.4727C6.96261 34.5362 6.93124 33.997 6.93124 31.9565C6.93124 30.5292 6.9417 29.3557 6.96261 29.3557C6.97306 29.3557 7.75715 30.138 8.69806 31.0896Z" fill="#D22530"/>
<path d="M33.0152 8.7712C32.252 9.12009 31.7188 9.93416 31.3843 11.2451C30.642 14.2054 32.0011 17.3243 33.9247 17.06C34.7925 16.9437 35.5138 16.1402 35.9215 14.8186C36.2665 13.7297 36.2561 11.8161 35.9006 10.854C35.587 9.9976 35.1061 9.25753 34.6565 8.95093C34.2384 8.6549 33.4543 8.57032 33.0152 8.7712ZM34.2697 11.2769C34.6356 12.3552 34.5625 13.9728 34.1025 14.8821C33.8515 15.3895 33.6529 15.453 33.4334 15.1252C32.7643 14.0891 32.6911 12.0169 33.287 10.8328C33.3915 10.6214 33.5379 10.4311 33.6111 10.3994C33.7993 10.3359 34.0711 10.706 34.2697 11.2769Z" fill="black"/>
<path d="M32.3357 27.4315C32.158 27.5795 32.0952 27.7381 32.0952 28.0764C32.0952 28.9434 31.3216 28.8799 41.4311 28.9116C48.6761 28.9328 50.422 28.9645 50.422 29.0702C50.422 29.1442 50.2757 29.4403 50.0979 29.7257C49.6588 30.4341 49.3034 31.2693 49.0316 32.2102C48.812 32.9926 48.812 33.1829 48.7598 45.32L48.697 57.6369L47.2857 57.6686C44.1389 57.7426 42.1734 57.3197 39.4866 55.9665C36.0784 54.2643 33.9143 53.9683 30.663 54.7506C29.7639 54.9727 28.6034 55.5013 27.7357 56.0933C27.4744 56.2731 27.2025 56.4211 27.1398 56.4211C27.0353 56.4211 27.0039 54.6661 27.0039 48.016V39.6004L26.7425 39.3466C26.408 38.9977 25.9271 38.9977 25.5925 39.3466L25.3312 39.6004V49.1155C25.3312 55.0678 25.373 58.7259 25.4357 58.895C25.5507 59.2228 25.9584 59.4342 26.293 59.3497C26.4289 59.3074 26.868 58.969 27.2653 58.5884C28.6557 57.2563 29.8998 56.5797 31.5621 56.2202C32.7748 55.9559 33.9352 55.9348 35.1584 56.1568C36.3921 56.3788 36.8625 56.548 38.7652 57.4783C41.933 59.0325 42.9366 59.2651 46.9929 59.3497L49.8784 59.4131L50.1502 59.1382L50.422 58.8633V49.8133C50.422 44.8443 50.4534 40.7739 50.5057 40.7739C50.5475 40.7739 50.7879 40.9853 51.0388 41.2497C51.2897 41.514 51.802 41.8734 52.1784 42.0637C52.7534 42.3386 53.0043 42.3915 53.6629 42.4021C54.8234 42.4126 55.5761 42.106 56.4752 41.2074C57.4997 40.1924 58.1375 38.9766 58.5347 37.2216C58.7647 36.2278 58.7961 33.7855 58.587 32.7917C58.1165 30.5292 57.1443 28.8059 55.7956 27.8755C54.8756 27.22 55.1893 27.2412 43.3548 27.2412C33.078 27.2412 32.5552 27.2518 32.3357 27.4315ZM54.7084 29.2077C55.1056 29.4085 55.9106 30.3178 56.2034 30.8993C57.3952 33.278 57.3952 36.4286 56.2034 38.8074C55.4611 40.2981 53.9975 41.1122 53.0043 40.6047C51.2793 39.7061 50.2757 37.1581 50.4638 34.1661C50.5893 32.0094 51.4779 30.0852 52.7011 29.2711C53.1925 28.9434 54.1438 28.9116 54.7084 29.2077Z" fill="black"/>
<path d="M53.0879 30.8252C52.2411 31.2269 51.6975 32.0727 51.4152 33.4577C50.8925 35.9316 51.7916 38.5219 53.3388 38.9871C54.5307 39.3465 55.712 38.1941 56.1197 36.2805C56.6111 33.944 55.8479 31.4701 54.447 30.8252C53.9138 30.582 53.6107 30.582 53.0879 30.8252ZM53.9975 32.4956C54.4575 33.0242 54.7188 34.7052 54.5097 35.8259C54.3634 36.5871 53.9975 37.3378 53.7675 37.3378C53.4748 37.3378 53.0357 36.2382 52.9729 35.3184C52.8893 34.3246 53.1298 33.0242 53.4643 32.5908C53.7152 32.263 53.7884 32.2524 53.9975 32.4956Z" fill="black"/>
</svg>
