<svg width="64" height="64" viewBox="0 0 64 64" fill="none" xmlns="http://www.w3.org/2000/svg">
<path d="M4.2665 11.4819C3.25335 11.8942 2.69965 12.4008 2.26377 13.2961L1.875 14.0854V30.0483V46.0113L2.26377 46.8006C2.69965 47.6959 3.25335 48.2025 4.2665 48.6148C4.91444 48.8858 5.06759 48.8975 7.9421 48.8975H10.9462L11.4528 49.7222C11.7708 50.2405 12.2421 50.7825 12.6897 51.1594C15.4818 53.4802 19.4166 53.3271 21.9612 50.7825C24.2349 48.5206 24.5765 44.9863 22.7976 42.2885C21.8198 40.7924 20.8067 40.0266 19.1692 39.5201C18.3092 39.2491 18.05 39.2138 16.8719 39.2609C15.3286 39.3198 14.7396 39.4965 13.5144 40.2505C11.4999 41.4992 10.1922 43.9378 10.3218 46.2115L10.3689 47.0244L7.6358 46.9891C4.54923 46.9537 4.50211 46.9419 3.97198 45.9995L3.70102 45.54V30.0719C3.70102 12.978 3.6539 14.109 4.47855 13.4846L4.91444 13.143L22.4207 13.1194L39.9269 13.0841L40.3981 13.355C40.6573 13.4964 40.9872 13.8263 41.1285 14.0854L41.3995 14.5567V30.7788V47.0126H33.6949H26.002L25.6839 47.3071C25.2716 47.6841 25.2716 48.226 25.6839 48.603L26.002 48.8975H34.0247H42.0474L42.4008 49.4984C42.8485 50.2641 44.168 51.5129 44.9219 51.9016C45.7819 52.3257 47.1249 52.6674 47.9967 52.6674C48.8685 52.6674 50.2115 52.3257 51.0715 51.9016C51.8137 51.5129 53.1449 50.2641 53.5926 49.5101L53.946 48.9093L56.5967 48.874L59.2591 48.8386L60.0484 48.4499C60.9556 48.0022 61.5093 47.366 61.898 46.3411C62.1336 45.705 62.1454 45.5165 62.1101 39.308C62.0747 33.7711 62.0512 32.8639 61.8862 32.4398C61.5917 31.6859 56.0665 23.8635 55.4775 23.3922C54.4997 22.5794 54.4526 22.5794 49.4104 22.5322L44.863 22.4969L44.5449 22.7914C44.1208 23.1802 44.1208 23.7103 44.5332 24.0991L44.8512 24.3936H49.1512C53.2274 24.3936 53.4865 24.4054 53.9342 24.6292C54.2052 24.7588 54.4997 24.9826 54.6057 25.1358C54.7117 25.2771 55.9252 27.0089 57.3035 28.9881C58.6819 30.9672 59.8599 32.6519 59.9306 32.7226C60.0131 32.8404 58.9175 32.8757 54.4879 32.8757H48.9392V30.5196V28.1634H51.0008H53.0742L53.357 27.8571C53.7339 27.4566 53.7339 26.9854 53.357 26.5848L53.0742 26.2785H50.3764H47.6786L47.3605 26.573L47.0542 26.8558V30.5196V34.1834L47.3605 34.4661L47.6786 34.7606H53.9578H60.2487V36.6456V38.5305H59.1413C58.1399 38.5305 58.0221 38.554 57.7276 38.825C57.5274 39.0135 57.4213 39.2255 57.4213 39.4729C57.4213 39.7203 57.5274 39.9324 57.7276 40.1209C58.0221 40.3918 58.1399 40.4154 59.1413 40.4154H60.2487V41.3579V42.3003H59.1413C58.1399 42.3003 58.0221 42.3239 57.7276 42.5948C57.3153 42.9718 57.3153 43.5137 57.7276 43.8907C58.0221 44.1617 58.1399 44.1852 59.1413 44.1852H60.2487V44.8567C60.2487 45.6343 59.9306 46.3058 59.3887 46.7063C59.0824 46.9302 58.8704 46.9537 56.7734 46.9891L54.4997 47.0244L54.5586 46.2822C54.7824 43.3959 52.4498 40.3565 49.4693 39.6497C47.5608 39.202 45.1458 39.791 43.791 41.0398L43.2844 41.511V27.916V14.3211L43.0017 13.6495C42.5893 12.6364 42.0828 12.0827 41.1874 11.6468L40.3981 11.2581L22.6681 11.2345L4.938 11.1992L4.2665 11.4819ZM17.8615 41.4874C18.7451 41.6759 19.4872 42.0883 20.1705 42.748C22.0319 44.5622 22.0437 47.531 20.1941 49.3688C18.3563 51.2183 15.3875 51.2066 13.5733 49.3452C11.7473 47.4721 11.7473 44.6682 13.5733 42.7951C14.716 41.617 16.2593 41.1458 17.8615 41.4874ZM48.9627 41.4874C49.8463 41.6759 50.5885 42.0883 51.2718 42.748C53.1331 44.5622 53.1449 47.531 51.2953 49.3688C49.4575 51.2183 46.4888 51.2066 44.6745 49.3452C42.8485 47.4721 42.8485 44.6682 44.6745 42.7951C45.8173 41.617 47.3605 41.1458 48.9627 41.4874Z" fill="black"/>
<path d="M15.9529 43.3959C15.3757 43.5844 14.3861 44.5975 14.2094 45.1983C13.8795 46.3057 14.1151 47.1893 14.9516 48.0139C16.1414 49.2156 17.6494 49.2156 18.8392 48.0139C20.0408 46.8241 20.0408 45.3161 18.8392 44.1263C18.0146 43.2899 17.0485 43.0542 15.9529 43.3959ZM17.5315 45.4222C18.1324 45.9876 17.72 47.0126 16.8718 47.0126C16.4477 47.0126 15.9529 46.506 15.9529 46.0701C15.9529 45.8934 16.0825 45.6107 16.2474 45.434C16.6126 45.0334 17.1074 45.0334 17.5315 45.4222Z" fill="black"/>
<path d="M47.0546 43.3958C46.4773 43.5843 45.4878 44.5975 45.3111 45.1983C44.9812 46.3057 45.2168 47.1892 46.0532 48.0139C46.8779 48.8503 47.7615 49.0859 48.8688 48.7561C49.5168 48.5676 50.4946 47.5898 50.6831 46.9419C51.0129 45.8345 50.7773 44.9509 49.9409 44.1263C49.1162 43.2898 48.1502 43.0542 47.0546 43.3958ZM48.6332 45.4221C49.234 45.9876 48.8217 47.0125 47.9735 47.0125C47.5494 47.0125 47.0546 46.506 47.0546 46.0701C47.0546 45.8934 47.1842 45.6106 47.3491 45.4339C47.7143 45.0334 48.2091 45.0334 48.6332 45.4221Z" fill="black"/>
<path d="M12.7489 17.1364C11.7358 17.5488 11.1821 18.0553 10.7462 18.9507L10.3574 19.74V27.2208V34.7015L10.7462 35.5026C11.1939 36.4097 11.83 36.9634 12.8549 37.3522C13.4911 37.5878 13.6796 37.5878 21.773 37.5643L30.0313 37.5289L30.8206 37.1402C31.716 36.7043 32.2225 36.1506 32.6349 35.1374L32.9176 34.4659V27.2208V19.9756L32.6349 19.3041C32.2225 18.291 31.716 17.7373 30.8206 17.3014L30.0313 16.9126L21.7259 16.889L13.4204 16.8537L12.7489 17.1364ZM17.8382 20.1523V21.566H15.0108H12.1834V20.9298C12.1834 20.1877 12.3248 19.74 12.69 19.3394C13.173 18.8211 13.5147 18.7504 15.753 18.7386H17.8382V20.1523ZM23.493 22.0961V25.4537L22.7037 24.9235C22.2678 24.629 21.773 24.3934 21.6081 24.3934C21.4431 24.3934 20.9483 24.629 20.5124 24.9235L19.7231 25.4537V22.0961V18.7386H21.6081H23.493V22.0961ZM29.9724 18.9742C30.2198 19.1038 30.5497 19.3748 30.7028 19.5868L30.9738 19.9756V27.2443C30.9738 34.4306 30.9738 34.513 30.7264 34.8429C30.5968 35.0196 30.2787 35.2906 30.0195 35.4319L29.5601 35.7029L21.4667 35.6676C13.5029 35.644 13.3733 35.644 13.0552 35.3966C12.8785 35.267 12.6193 35.0078 12.4897 34.8311C12.2541 34.513 12.2423 34.3481 12.207 28.9761L12.1717 23.4509H15.0108H17.8382V25.5008V27.5388L18.1445 27.8569C18.3212 28.0219 18.5922 28.1632 18.7571 28.1632C18.9456 28.1632 19.5935 27.8216 20.3357 27.3268L21.6081 26.4786L22.8215 27.2914C24.1998 28.2103 24.7417 28.3399 25.1541 27.8098C25.3543 27.5506 25.3779 27.3032 25.3779 25.4772V23.4509H26.9683C28.5469 23.4509 28.5705 23.4509 28.8532 23.1446C29.2302 22.7441 29.2302 22.2729 28.8532 21.8723C28.5705 21.566 28.5469 21.566 26.9683 21.566H25.3779V20.1523V18.7386H27.4395C29.2656 18.7386 29.5601 18.7622 29.9724 18.9742Z" fill="#D22530"/>
</svg>
