<svg width="64" height="64" viewBox="0 0 64 64" fill="none" xmlns="http://www.w3.org/2000/svg">
<path d="M29.3771 6.05941C24.2636 6.59056 19.6603 8.44436 15.6819 11.5583C14.7446 12.2978 12.4117 14.641 11.6098 15.6408C8.73539 19.2755 6.89201 23.5039 6.18381 28.1384C5.96511 29.6068 5.93386 33.5331 6.13174 34.9599C6.99615 41.1045 9.54773 46.2077 13.7969 50.2902C17.9107 54.2478 22.7222 56.5702 28.544 57.4138C29.8875 57.6117 33.9596 57.5804 35.3655 57.3617C39.8646 56.6744 43.7493 55.0393 47.3944 52.3211C48.8525 51.2275 51.1228 48.978 52.2164 47.5408C56.5697 41.8023 58.3297 35.012 57.2883 27.9509C56.5176 22.7228 54.1118 17.8071 50.3938 13.9224C46.3842 9.72535 41.3331 7.13212 35.3655 6.20522C34.1262 6.01775 30.6269 5.93444 29.3771 6.05941ZM27.0651 8.73597C24.9718 10.4752 22.8784 12.8393 21.285 15.2347L20.4206 16.5469L19.1917 16.1095C17.5566 15.5159 17.5253 15.5055 16.2964 14.891C15.7028 14.5994 15.2133 14.3182 15.2133 14.2765C15.2133 14.1724 16.1818 13.308 17.0879 12.6206C19.3166 10.923 22.0869 9.48582 24.6073 8.71513C25.5862 8.42353 27.5442 7.95487 27.8462 7.94445C27.9503 7.93404 27.6067 8.28814 27.0651 8.73597ZM30.8977 15.62C30.8664 15.6408 30.4603 15.7033 29.9812 15.7554C28.2628 15.9533 26.2007 16.5469 24.7947 17.2551L24.2844 17.5155L23.2429 17.2864C22.6597 17.1614 22.1911 17.026 22.1911 16.9739C22.1911 16.8489 22.8993 15.7762 23.5762 14.8597C25.4508 12.3602 27.4713 10.4023 30.002 8.57975L30.8873 7.94445L30.9185 11.7562C30.9289 13.8495 30.9185 15.5888 30.8977 15.62ZM35.4593 10.0794C36.7923 11.1834 38.292 12.7248 39.4376 14.1828C40.2083 15.1618 41.3539 16.8281 41.3539 16.9739C41.3539 17.026 40.8957 17.1614 40.3229 17.2864L39.3023 17.5051L38.1671 17.0052C37.0006 16.4844 35.001 15.922 33.9075 15.8075C33.5638 15.7658 33.1264 15.7137 32.9493 15.6825L32.6057 15.6304V11.777V7.92363L33.3972 8.4756C33.8346 8.77762 34.7615 9.49623 35.4593 10.0794ZM36.9694 8.20482C40.1875 8.92343 43.4577 10.4127 46.0718 12.329C47.0091 13.0268 48.3317 14.162 48.3317 14.2765C48.3317 14.5057 43.7285 16.474 43.1765 16.474C43.114 16.474 42.687 15.9012 42.2183 15.193C40.6249 12.7977 38.8336 10.7668 36.6361 8.89219C36.0217 8.36104 35.5738 7.93404 35.6363 7.93404C35.6988 7.93404 36.3029 8.05902 36.9694 8.20482ZM15.1716 16.1824C16.286 16.7552 18.1814 17.5675 19.0146 17.8279C19.2437 17.9008 19.4728 17.9945 19.5145 18.0362C19.5666 18.0779 19.4208 18.484 19.1917 18.9319C18.4626 20.4003 17.7128 22.4624 17.1816 24.4412C17.015 25.0661 16.6922 26.1283 16.4734 26.7845C16.1193 27.8051 15.9215 28.7632 15.6715 30.6066L15.6194 30.9503H11.5994H7.58978L7.65227 30.138C8.0272 25.8159 9.29778 22.025 11.5473 18.609C12.3909 17.328 13.8281 15.5055 13.9531 15.5575C13.9948 15.5784 14.5363 15.8596 15.1716 16.1824ZM50.3626 16.3699C53.5703 20.2129 55.3928 24.8161 55.8823 30.2421L55.9448 30.9503H51.9352H47.9256L47.8735 30.6066C47.5506 28.3779 47.4257 27.8155 46.9778 26.472C46.707 25.6389 46.3113 24.3683 46.1134 23.6497C45.6448 22.0042 45.124 20.5774 44.4679 19.1922C44.1867 18.5882 43.9888 18.0779 44.0305 18.0362C44.0826 17.9945 44.6762 17.7654 45.3636 17.5155C46.0509 17.2551 47.2694 16.7135 48.0714 16.3074C48.8733 15.9012 49.5606 15.5575 49.6023 15.5471C49.6335 15.5471 49.9772 15.9116 50.3626 16.3699ZM35.1468 17.7133C37.9692 18.4528 40.0625 19.6505 42.1038 21.7021C44.0721 23.6913 45.426 26.3366 45.9989 29.336C46.2696 30.7316 46.2488 33.2936 45.9572 34.6162C44.5616 41.0212 39.4689 45.5724 33.0014 46.1764C28.294 46.6139 23.545 44.6038 20.5768 40.9171C13.9219 32.6687 17.8898 20.5565 28.169 17.7758C29.5958 17.3905 30.3249 17.3176 32.2412 17.3593C33.6888 17.3905 34.0741 17.4426 35.1468 17.7133ZM22.1182 18.7548C22.1598 18.7965 22.0869 18.911 21.9515 19.0048C21.8057 19.0985 21.41 19.4318 21.0559 19.765C20.7018 20.0879 20.4206 20.317 20.4206 20.2858C20.4206 20.2441 20.5976 19.8379 20.8059 19.3797L21.1913 18.5361L21.6078 18.609C21.8474 18.6402 22.0765 18.7132 22.1182 18.7548ZM42.7495 19.3901C42.9578 19.8379 43.1244 20.2545 43.1244 20.2962C43.1244 20.3378 42.9057 20.1608 42.6349 19.9004C42.3537 19.64 41.9892 19.3172 41.8226 19.1714C41.4164 18.8485 41.3852 18.734 41.6872 18.6402C42.2913 18.4736 42.3433 18.5153 42.7495 19.3901ZM15.6715 32.9499C15.9215 34.8037 16.1193 35.7618 16.4734 36.7825C16.6922 37.4386 17.0462 38.5634 17.2337 39.282C17.7128 41.0212 18.3481 42.8125 19.025 44.3122C19.3895 45.1246 19.5353 45.5516 19.452 45.5828C18.0252 46.0619 15.7132 47.0721 13.9427 48.0094C13.7344 48.124 11.2974 44.7496 10.433 43.1354C9.56856 41.5315 8.6729 39.1049 8.23549 37.2615C8.0272 36.3555 7.76683 34.5954 7.66269 33.3665L7.6002 32.6166H11.6098H15.6194L15.6715 32.9499ZM55.8823 33.3665C55.5074 37.6261 54.3097 41.2816 52.1539 44.6976C51.4457 45.8328 49.7169 48.0615 49.6023 48.0094C49.5606 47.9886 48.9983 47.7074 48.3421 47.3741C47.1861 46.7805 45.3531 45.989 44.5304 45.739C44.3013 45.6661 44.0721 45.5724 44.0305 45.5307C43.9784 45.4891 44.1034 45.135 44.3013 44.7392C44.9157 43.5207 45.5927 41.6982 46.0926 39.9589C46.3529 39.0424 46.7487 37.751 46.9778 37.0949C47.3944 35.866 47.811 34.0539 47.811 33.429C47.811 33.2415 47.8422 32.9811 47.8735 32.8458L47.936 32.6166H51.9456H55.9448L55.8823 33.3665ZM20.9934 43.7603C21.2225 43.9894 21.587 44.3018 21.8057 44.458C22.2535 44.7705 22.2119 44.8642 21.6183 44.9579L21.2017 45.0308L20.8163 44.2393C20.5976 43.8019 20.4206 43.4166 20.4206 43.3957C20.4206 43.2499 20.6289 43.3853 20.9934 43.7603ZM42.9786 43.6769C42.9057 43.8644 42.7287 44.2497 42.5933 44.5205C42.3433 45.0308 42.3433 45.0308 41.9267 44.9579C41.6976 44.9267 41.4789 44.8642 41.4373 44.8225C41.3852 44.7705 41.5726 44.5726 41.8538 44.3643C42.1246 44.156 42.4787 43.8436 42.6453 43.6665C43.0411 43.2499 43.1661 43.2604 42.9786 43.6769ZM25.4717 46.6034C26.5652 47.0929 28.5752 47.6553 29.6375 47.7595C29.9812 47.8011 30.4186 47.8532 30.6061 47.8844L30.9393 47.9365V51.7899V55.6433L30.2936 55.2059C28.2836 53.852 25.7424 51.5087 24.2532 49.6237C23.3054 48.4364 22.0765 46.6555 22.1494 46.5826C22.2327 46.4993 24.2115 46.0619 24.3261 46.1035C24.3885 46.1244 24.8989 46.3535 25.4717 46.6034ZM40.3645 46.3118C40.8228 46.416 41.2498 46.5201 41.3227 46.5618C41.4685 46.6347 40.5833 47.9886 39.4793 49.405C38.0421 51.2484 35.251 53.8416 33.2097 55.2371L32.6057 55.6433V51.7899V47.9365L32.9493 47.8844C35.4176 47.5512 36.7194 47.2179 38.2296 46.5305C38.7711 46.2806 39.2918 46.0931 39.3752 46.1035C39.4585 46.1244 39.9063 46.2181 40.3645 46.3118ZM21.0663 48.0302C22.691 50.6131 25.0134 53.2063 27.3984 55.1122L28.0753 55.6537L27.6067 55.5912C25.8778 55.3309 22.7639 54.3102 21.0767 53.4562C20.0769 52.9563 18.6813 52.1128 17.7649 51.4566C16.8484 50.8005 15.2133 49.4154 15.2133 49.2904C15.2133 49.03 20.2331 46.895 20.4414 47.0825C20.4831 47.1138 20.7643 47.5408 21.0663 48.0302ZM45.3636 47.8115C46.4258 48.2385 48.3317 49.1863 48.3317 49.2904C48.3317 49.457 46.4571 50.988 45.3011 51.7691C43.1973 53.1855 41.3019 54.102 38.844 54.883C38.0004 55.1538 35.9279 55.6329 35.6051 55.6329C35.553 55.6329 35.803 55.3934 36.1675 55.0913C39.0107 52.7481 40.9582 50.4985 42.9786 47.2283L43.1244 46.9992L43.8222 47.2387C44.218 47.3741 44.9053 47.6345 45.3636 47.8115Z" fill="black"/>
<path d="M31.033 17.8172C30.6165 17.9526 30.3144 18.1297 29.398 18.7962L28.5335 19.4211L27.2005 19.546C26.0757 19.6502 25.7945 19.7127 25.3258 19.973C24.5968 20.3688 24.1386 20.9833 23.9095 21.8581C23.42 23.7744 23.4825 23.6494 22.5556 24.5555C21.4308 25.649 21.2121 26.076 21.2017 27.0966C21.2017 27.8257 21.2329 27.9506 21.764 29.0546L22.316 30.2314L22.2015 31.1479C22.139 31.6478 22.0869 32.2414 22.0869 32.4706C22.0869 33.512 22.743 34.5014 23.7532 35.0117L24.3573 35.3138L23.0659 38.0944C22.3577 39.6254 21.7432 40.9793 21.712 41.1043C21.6703 41.2605 21.7432 41.4375 21.9307 41.6562C22.2639 42.0624 22.441 42.0728 24.0136 41.7812C24.6385 41.6667 25.2321 41.5729 25.3363 41.5729C25.4612 41.5729 25.7528 41.9687 26.2527 42.8123C27.1796 44.3953 27.5442 44.6661 28.1274 44.1974C28.2523 44.0933 28.9501 42.7289 29.6791 41.1563C30.9706 38.3652 31.0122 38.3027 31.3559 38.209C31.6163 38.1361 31.9287 38.1674 32.4598 38.2819L33.1993 38.459L34.1262 40.646C34.6365 41.8437 35.1364 42.9164 35.2405 43.031C35.4801 43.3017 35.8967 43.3955 36.1883 43.2601C36.3237 43.1976 36.7715 42.5936 37.2297 41.8437C37.6776 41.1251 38.0525 40.5315 38.0733 40.5315C38.0941 40.5315 38.6669 40.6564 39.3439 40.8022C40.7707 41.1147 41.1665 41.1355 41.4997 40.9168C41.9996 40.5835 41.958 40.3752 40.7811 37.6674C40.1771 36.2719 39.6876 35.1055 39.6876 35.0846C39.6876 35.0534 39.8334 34.9805 40 34.9076C40.4791 34.7097 41.1144 33.9182 41.3227 33.2829C41.4789 32.7726 41.4789 32.5955 41.3643 31.4708L41.2289 30.221L41.7809 29.0546C42.3121 27.9506 42.3433 27.8257 42.3433 27.0966C42.3329 26.0864 42.1038 25.6282 41.0727 24.6596C40.1562 23.7848 40.0625 23.639 39.7917 22.4517C39.3022 20.3688 38.5003 19.6919 36.3549 19.546C35.7509 19.5044 35.1572 19.4315 35.0323 19.3794C34.8969 19.3273 34.449 19.0357 34.0429 18.7233C33.6263 18.4213 33.116 18.0776 32.9181 17.9839C32.5223 17.7756 31.4392 17.6818 31.033 17.8172ZM33.1993 20.1605C34.397 21.0249 34.6573 21.1082 36.2924 21.2228C37.688 21.3165 37.8234 21.4415 38.1775 22.9204C38.3233 23.514 38.5316 24.1597 38.6357 24.368C38.7399 24.5659 39.2293 25.1387 39.7292 25.6282C40.9373 26.8363 40.9477 26.9196 40.1979 28.4818C39.6876 29.5441 39.6355 29.7003 39.6355 30.3772C39.6355 30.773 39.6772 31.4916 39.7292 31.9498L39.8126 32.8038L39.4689 33.1683C39.2398 33.4079 38.7607 33.6891 38.115 33.9599C36.9902 34.4493 36.6778 34.7305 35.8446 35.9699C35.0218 37.2092 34.8135 37.2613 33.0847 36.751C31.9391 36.3969 31.6058 36.3969 30.4602 36.751C28.7002 37.2717 28.544 37.2196 27.6066 35.8449C26.7839 34.6472 26.4819 34.3973 25.3258 33.9182C24.3469 33.512 23.899 33.1683 23.7949 32.7622C23.7637 32.6372 23.7845 32.0227 23.847 31.3979C23.9095 30.773 23.9303 30.096 23.899 29.8982C23.8678 29.7003 23.6074 29.0546 23.3262 28.4609C22.5972 26.9196 22.5972 26.8779 23.7845 25.6594C24.326 25.097 24.8364 24.5034 24.9197 24.3368C25.0134 24.1597 25.2009 23.5348 25.3571 22.9308C25.7216 21.4415 25.857 21.3165 27.2525 21.2228C28.8876 21.1082 29.148 21.0249 30.3457 20.1605C31.1788 19.5565 31.4809 19.3898 31.7725 19.3898C32.0641 19.3898 32.3661 19.5565 33.1993 20.1605ZM38.8544 37.3758C39.2085 38.2194 39.5209 38.9693 39.5522 39.0318C39.5834 39.1047 39.2293 39.0734 38.5524 38.9276L37.5109 38.7089L37.2193 38.9276C37.0631 39.0422 36.7402 39.4588 36.5111 39.8337C36.282 40.2086 36.0529 40.5315 35.9904 40.5315C35.9071 40.5523 35.0635 38.7506 35.1364 38.7089C35.1468 38.6985 35.3239 38.6256 35.5217 38.5527C36.0841 38.334 36.6153 37.8757 36.9902 37.2717C37.4068 36.6052 38.0108 35.8449 38.115 35.8449C38.1566 35.8449 38.4899 36.5323 38.8544 37.3758ZM26.461 37.1259C27.0963 38.0632 27.5962 38.459 28.4086 38.6777L28.9293 38.8131L28.294 40.1878C27.9399 40.9376 27.6275 41.5938 27.5858 41.625C27.5546 41.6562 27.3046 41.3126 27.0443 40.8543C26.7735 40.4065 26.4923 39.9691 26.409 39.9066C26.2111 39.7504 25.7528 39.7504 24.8259 39.9378C24.3677 40.0211 24.0657 40.042 24.0657 39.9795C24.0657 39.8233 25.7528 36.2615 25.8257 36.2615C25.857 36.2719 26.1486 36.6572 26.461 37.1259Z" fill="#D22530"/>
<path d="M30.1269 21.8269C29.0438 22.0977 28.0336 22.6913 27.1379 23.5974C25.784 24.9721 25.2008 26.3469 25.2008 28.1903C25.2008 30.1274 25.784 31.5333 27.1275 32.8872C27.8045 33.5642 28.1481 33.8246 28.8563 34.1578C31.4496 35.4076 34.3448 34.9389 36.3653 32.9289C37.7087 31.5958 38.3336 30.1274 38.3336 28.284C38.3336 26.3677 37.7192 24.8992 36.3653 23.5558C35.4904 22.6913 34.2823 22.004 33.2513 21.7957C32.5223 21.6395 30.8143 21.6603 30.1269 21.8269ZM33.2305 23.5558C36.1778 24.4098 37.5525 27.8257 36.0945 30.6481C35.9903 30.846 35.6258 31.3042 35.2717 31.6687C32.9284 34.1266 28.8563 33.4705 27.3566 30.4086C26.0236 27.7112 27.3879 24.5035 30.2415 23.5662C31.2933 23.2225 32.064 23.2225 33.2305 23.5558Z" fill="#D22530"/>
<path d="M34.2512 25.7116C34.0637 25.8678 33.1472 26.701 32.2099 27.555L30.5123 29.0963L29.7521 28.3569C29.1272 27.7632 28.9189 27.6174 28.6585 27.6174C28.2107 27.6174 27.8149 28.0236 27.8149 28.4714C27.8149 28.7526 27.9712 28.9609 28.9397 29.9295C30.5332 31.5229 30.2415 31.5854 33.1472 28.9505C34.4282 27.8049 35.5217 26.753 35.5947 26.6385C35.7925 26.2948 35.7509 25.9615 35.4697 25.6907C35.1364 25.3471 34.6886 25.3575 34.2512 25.7116Z" fill="#D22530"/>
</svg>
